<svg id="Layer_1" enable-background="new 0 0 74 74" height="512" viewBox="0 0 74 74" width="512" xmlns="http://www.w3.org/2000/svg"><g><path d="m50.59 60.09h-36.06c-.41 0-.75.34-.75.75s.34.75.75.75h36.06c.41 0 .75-.34.75-.75s-.34-.75-.75-.75z"/><path d="m50.59 55.61h-36.06c-.41 0-.75.34-.75.75s.34.75.75.75h36.06c.41 0 .75-.34.75-.75s-.34-.75-.75-.75z"/><path d="m60.03 5h-46.06c-2.86 0-5.19 2.33-5.19 5.19v55.1c0 .26.13.49.35.63l4.62 2.96c.25.16.56.16.81 0l4.2-2.7 4.21 2.7c.12.08.26.12.4.12s.28-.04.41-.12l4.18-2.7 4.19 2.7c.25.16.56.16.81 0l4.2-2.7 4.19 2.7c.25.16.56.16.81 0l4.2-2.7 4.19 2.7c.25.16.56.16.81 0l4.64-2.96c.21-.14.34-.38.34-.63v-11.14c2.43-.35 4.31-2.43 4.31-4.95v-.61c0-.5-.29-.93-.71-1.15.08-1.46.78-2.88 1.96-3.93 1.92-1.73 3.02-4.19 3.02-6.77s-1.11-5.05-3.04-6.78c-1.54-1.38-3.5-2.17-5.54-2.29v-10.04h8.13c.41 0 .75-.34.75-.75v-6.69c0-2.86-2.33-5.19-5.19-5.19zm-9.05 62.36-4.19-2.7c-.25-.16-.56-.16-.81 0l-4.2 2.7-4.19-2.7c-.25-.16-.56-.16-.81 0l-4.2 2.7-4.19-2.7c-.25-.16-.56-.16-.81 0l-4.19 2.7-4.21-2.7c-.25-.16-.56-.16-.81 0l-4.2 2.7-3.87-2.48v-54.69c0-2.03 1.66-3.69 3.69-3.69h42.41c-.95.94-1.55 2.25-1.55 3.69l.01 17.5c-.02 0-.04 0-.06 0-4.22.47-7.59 3.88-8.01 8.11-.28 2.82.73 5.56 2.78 7.51 1.13 1.08 1.78 2.55 1.78 4.04v.06c-.43.22-.73.65-.73 1.16v.61c0 2.5 1.85 4.57 4.25 4.95v10.74zm8.17-18.17c0 1.94-1.58 3.53-3.53 3.53s-3.53-1.58-3.53-3.53v-.43h7.05v.43zm4.27-12.45c0 2.15-.92 4.21-2.53 5.65-1.45 1.3-2.33 3.06-2.45 4.88h-5.62c-.03-1.87-.84-3.7-2.24-5.03-1.71-1.63-2.55-3.91-2.32-6.27.35-3.53 3.16-6.38 6.69-6.77 2.19-.25 4.3.43 5.94 1.89 1.6 1.43 2.53 3.49 2.53 5.65zm.3-20.61h-7.38v-5.94c0-.01 0-.02 0-.02.01-2.03 1.66-3.67 3.69-3.67 2.04 0 3.69 1.66 3.69 3.69z"/><path d="m52.13 38.69c.1.22.29.38.53.43l1.96.41-.29 4.4c-.02.35.2.67.53.77.07.02.14.03.22.03.26 0 .52-.14.65-.38l3.74-6.57c.12-.21.13-.46.03-.68s-.29-.38-.53-.43l-1.96-.41.29-4.4c.02-.35-.2-.67-.53-.77s-.69.04-.87.35l-3.74 6.57c-.11.21-.12.46-.03.68zm3.46-3.67-.12 1.79c-.02.37.23.71.59.78l1.59.33-1.62 2.84.12-1.79c.02-.37-.23-.71-.59-.78l-1.59-.33z"/><path d="m14.53 11.5h13.75c.41 0 .75-.34.75-.75s-.33-.75-.75-.75h-13.75c-.41 0-.75.34-.75.75s.34.75.75.75z"/><path d="m14.53 16.01h23.89c.41 0 .75-.34.75-.75s-.34-.75-.75-.75h-23.89c-.41 0-.75.34-.75.75s.34.75.75.75z"/><path d="m14.53 20.51h18.45c.41 0 .75-.34.75-.75s-.34-.75-.75-.75h-18.45c-.41 0-.75.34-.75.75s.34.75.75.75z"/><path d="m21.41 33.37h-2.26c-.41 0-.75.34-.75.75s.34.75.75.75h2.26c.41 0 .75-.34.75-.75s-.34-.75-.75-.75z"/><path d="m44.26 33.37h-13.61c-.41 0-.75.34-.75.75s.34.75.75.75h13.61c.41 0 .75-.34.75-.75s-.34-.75-.75-.75z"/><path d="m19.14 41.98h2.26c.41 0 .75-.34.75-.75s-.34-.75-.75-.75h-2.26c-.41 0-.75.34-.75.75s.34.75.75.75z"/><path d="m29.9 41.23c0 .41.34.75.75.75h14.2c.41 0 .75-.34.75-.75s-.34-.75-.75-.75h-14.2c-.41 0-.75.34-.75.75z"/><path d="m19.14 49.08h2.26c.41 0 .75-.34.75-.75s-.34-.75-.75-.75h-2.26c-.41 0-.75.34-.75.75s.34.75.75.75z"/><path d="m30.65 47.58c-.41 0-.75.34-.75.75s.34.75.75.75h15.31c.41 0 .75-.34.75-.75s-.34-.75-.75-.75z"/><path d="m14.53 52.64 33.79-.01c.41 0 .75-.34.75-.75s-.34-.75-.75-.75h-21.55v-5.6h20.35c.41 0 .75-.34.75-.75s-.34-.75-.75-.75h-20.35v-5.6h17.24c.41 0 .75-.34.75-.75s-.34-.75-.75-.75h-17.24v-5.61h18.94c.41 0 .75-.34.75-.75s-.34-.75-.75-.75h-31.18c-.41 0-.75.34-.75.75v21.31c0 .42.34.76.75.76zm10.74-8.61h-9.99v-5.6h9.99zm0 7.11h-9.99v-5.6h9.99zm-9.99-19.82h9.99v5.6h-9.99z"/><path d="m47.18 21.95c-1.05 0-1.91-.86-1.91-1.91 0-.41-.34-.75-.75-.75s-.75.34-.75.75c0 1.62 1.14 2.98 2.66 3.32v.66c0 .41.34.75.75.75s.75-.34.75-.75v-.66c1.52-.34 2.66-1.7 2.66-3.32 0-1.88-1.53-3.41-3.41-3.41-1.05 0-1.91-.86-1.91-1.91s.86-1.91 1.91-1.91 1.91.86 1.91 1.91c0 .41.34.75.75.75s.75-.34.75-.75c0-1.62-1.14-2.98-2.66-3.32v-.66c0-.41-.34-.75-.75-.75s-.75.34-.75.75v.66c-1.52.34-2.66 1.7-2.66 3.32 0 1.88 1.53 3.41 3.41 3.41 1.05 0 1.91.86 1.91 1.91s-.86 1.91-1.91 1.91z"/></g></svg>