<svg id="Layer_1_1_" enable-background="new 0 0 64 64" height="512" viewBox="0 0 64 64" width="512" xmlns="http://www.w3.org/2000/svg"><path d="m54.279 42.187c.886-.9 1.499-2.061 1.652-3.37.061-.308.069-.598.069-.817 0-3.309-2.691-6-6-6s-6 2.691-6 6c0 .219.008.509.057.737.159 1.35.779 2.535 1.673 3.447-2.14.566-3.73 2.501-3.73 4.816v10c0 .552.447 1 1 1h14c.553 0 1-.448 1-1v-10c0-2.312-1.586-4.244-3.721-4.813zm-4.279-8.187c1.423 0 2.666.752 3.375 1.874-1.018-.562-2.174-.874-3.375-.874s-2.357.312-3.375.874c.709-1.122 1.952-1.874 3.375-1.874zm0 3c1.522 0 2.941.695 3.879 1.867-.388 1.806-1.985 3.133-3.879 3.133-1.873 0-3.456-1.298-3.877-3.137.939-1.17 2.356-1.863 3.877-1.863zm.911 12.83-.911 1.367-.911-1.367.911-3.19zm5.089 6.17h-12v-9c0-1.654 1.346-3 3-3h1.674l-1.636 5.725c-.08.282-.033.585.13.83l2 3c.186.278.498.445.832.445s.646-.167.832-.445l2-3c.163-.244.21-.547.13-.83l-1.636-5.725h1.674c1.654 0 3 1.346 3 3z"/><path d="m18.279 42.187c.886-.9 1.499-2.061 1.652-3.37.061-.308.069-.598.069-.817 0-3.309-2.691-6-6-6s-6 2.691-6 6c0 .219.008.509.057.737.159 1.35.779 2.535 1.673 3.447-2.14.566-3.73 2.501-3.73 4.816v10c0 .552.447 1 1 1h14c.553 0 1-.448 1-1v-10c0-2.312-1.586-4.244-3.721-4.813zm-4.279-8.187c1.423 0 2.666.752 3.375 1.874-1.018-.562-2.174-.874-3.375-.874s-2.357.312-3.375.874c.709-1.122 1.952-1.874 3.375-1.874zm0 3c1.522 0 2.941.695 3.879 1.867-.388 1.806-1.985 3.133-3.879 3.133-1.873 0-3.456-1.298-3.877-3.137.939-1.17 2.356-1.863 3.877-1.863zm.911 12.83-.911 1.367-.911-1.367.911-3.19zm5.089 6.17h-12v-9c0-1.654 1.346-3 3-3h1.674l-1.636 5.725c-.08.282-.033.585.13.83l2 3c.186.278.498.445.832.445s.646-.167.832-.445l2-3c.163-.244.21-.547.13-.83l-1.636-5.725h1.674c1.654 0 3 1.346 3 3z"/><path d="m31.979 33.946c-.018 0-.035 0-.053 0-1.07.014-2.071.443-2.818 1.21s-1.15 1.778-1.137 2.848c.014 1.07.443 2.071 1.21 2.818.754.735 1.744 1.138 2.794 1.138h.054c1.07-.014 2.071-.443 2.818-1.21.748-.767 1.151-1.778 1.138-2.848-.028-2.193-1.82-3.956-4.006-3.956zm1.437 5.408c-.374.384-.876.599-1.412.606-.009 0-.018 0-.027 0-.525 0-1.021-.202-1.398-.57-.385-.375-.6-.875-.606-1.412s.195-1.043.569-1.427.875-.599 1.411-.606h.026c1.095 0 1.993.884 2.007 1.981.006.537-.196 1.044-.57 1.428z"/><path d="m41.954 36.077c-.007-.548-.453-.987-1-.987-.004 0-.009 0-.013 0l-1.295.017c-.085-.223-.179-.442-.282-.657l.903-.927c.386-.396.378-1.028-.018-1.414l-2.571-2.506c-.19-.185-.48-.283-.711-.284-.266.003-.519.112-.703.302l-.903.927c-.218-.098-.439-.186-.665-.265l-.016-1.295c-.003-.265-.112-.518-.302-.703-.189-.186-.423-.289-.711-.284l-3.591.046c-.552.007-.994.46-.987 1.013l.017 1.295c-.224.084-.442.178-.657.281l-.927-.903c-.19-.185-.447-.281-.711-.284-.266.003-.519.112-.703.302l-2.507 2.572c-.186.19-.287.446-.284.711.004.265.112.519.302.704l.928.903c-.098.217-.187.439-.265.664l-1.295.017c-.553.007-.994.46-.987 1.013l.046 3.59c.007.548.453.987 1 .987h.013l1.295-.017c.085.223.179.442.282.657l-.903.927c-.386.396-.378 1.028.018 1.414l2.571 2.506c.189.185.423.288.711.284.266-.003.519-.112.703-.302l.903-.927c.218.098.439.186.665.265l.016 1.295c.003.265.112.518.302.703.186.181.437.283.697.283h.013l3.591-.046c.552-.007.994-.46.987-1.013l-.017-1.295c.224-.084.442-.178.657-.281l.927.903c.19.186.456.286.711.284.266-.003.519-.112.703-.302l2.507-2.572c.186-.19.287-.446.284-.711-.004-.265-.112-.519-.302-.704l-.928-.903c.098-.217.187-.439.265-.664l1.295-.017c.553-.007.994-.46.987-1.013zm-2.998 2.63c-.457.006-.852.32-.959.764-.136.559-.35 1.096-.637 1.596-.227.396-.156.895.17 1.213l.738.719-1.11 1.14-.738-.72c-.328-.319-.829-.376-1.219-.138-.488.297-1.02.525-1.579.678-.439.12-.743.521-.737.978l.013 1.031-1.591.021-.013-1.031c-.006-.456-.319-.851-.763-.959-.562-.137-1.1-.352-1.597-.637-.156-.089-.327-.133-.498-.133-.263 0-.522.104-.716.302l-.72.738-1.139-1.11.719-.738c.318-.327.376-.827.139-1.217-.299-.492-.526-1.023-.678-1.58-.12-.44-.521-.785-.978-.738l-1.031.013-.021-1.591 1.031-.013c.457-.006.852-.32.959-.764.136-.559.35-1.096.637-1.596.227-.396.156-.895-.17-1.213l-.738-.719 1.11-1.14.738.72c.328.318.829.375 1.219.138.488-.297 1.02-.525 1.579-.678.439-.12.743-.521.737-.978l-.013-1.031 1.591-.021.013 1.031c.006.456.319.851.763.959.562.137 1.1.352 1.597.637.396.226.895.159 1.214-.169l.72-.738 1.139 1.11-.719.738c-.318.327-.376.827-.139 1.217.299.492.526 1.023.678 1.58.119.439.532.697.978.738l1.031-.013.021 1.591z"/><path d="m3 62h58c.553 0 1-.448 1-1v-36c0-.552-.447-1-1-1h-58c-.553 0-1 .448-1 1v36c0 .552.447 1 1 1zm1-36h56v34h-56z"/><path d="m32 22c5.514 0 10-4.486 10-10s-4.486-10-10-10-10 4.486-10 10 4.486 10 10 10zm0-18c4.411 0 8 3.589 8 8s-3.589 8-8 8-8-3.589-8-8 3.589-8 8-8z"/><path d="m32 15c-.552 0-1-.449-1-1h-2c0 1.302.839 2.402 2 2.816v1.184h2v-1.184c1.161-.414 2-1.514 2-2.816 0-1.654-1.346-3-3-3-.552 0-1-.449-1-1s.448-1 1-1 1 .449 1 1h2c0-1.302-.839-2.402-2-2.816v-1.184h-2v1.184c-1.161.414-2 1.514-2 2.816 0 1.654 1.346 3 3 3 .552 0 1 .449 1 1s-.448 1-1 1z"/><path d="m48 11h2v2h-2z"/><path d="m44 11h2v2h-2z"/><path d="m52 11h2v2h-2z"/><path d="m52.293 21.707c.195.195.451.293.707.293s.512-.098.707-.293l3-3-1.414-1.414-1.293 1.293v-3.586h-2v3.586l-1.293-1.293-1.414 1.414z"/><path d="m18 11h2v2h-2z"/><path d="m10 11h2v2h-2z"/><path d="m14 11h2v2h-2z"/><path d="m11 22c.256 0 .512-.098.707-.293l3-3-1.414-1.414-1.293 1.293v-3.586h-2v3.586l-1.293-1.293-1.414 1.414 3 3c.195.195.451.293.707.293z"/></svg>