<?xml version="1.0" encoding="UTF-8" standalone="no"?>
<!-- Created with Inkscape (http://www.inkscape.org/) -->

<svg
   version="1.1"
   id="svg3369"
   xml:space="preserve"
   width="682.66669"
   height="682.66669"
   viewBox="0 0 682.66669 682.66669"
   xmlns="http://www.w3.org/2000/svg"
   xmlns:svg="http://www.w3.org/2000/svg"><defs
     id="defs3373"><clipPath
       clipPathUnits="userSpaceOnUse"
       id="clipPath3383"><path
         d="M 0,512 H 512 V 0 H 0 Z"
         id="path3381" /></clipPath></defs><g
     id="g3375"
     transform="matrix(1.3333333,0,0,-1.3333333,0,682.66667)"><g
       id="g3377"><g
         id="g3379"
         clip-path="url(#clipPath3383)"><g
           id="g3385"
           transform="translate(318.5,7.5)"><path
             d="m 0,0 h -287 c -13.255,0 -24,10.745 -24,24 0,3.314 2.687,6 6,6 h 485 c 3.313,0 6,-2.686 6,-6 C 186,10.745 175.255,0 162,0 H 36.295"
             style="fill:none;stroke:#000000;stroke-width:15;stroke-linecap:round;stroke-linejoin:round;stroke-miterlimit:10;stroke-dasharray:none;stroke-opacity:1"
             id="path3387" /></g><g
           id="g3389"
           transform="translate(288.5,285.0259)"><path
             d="m 0,0 v -247.526 h -148 v 314 H 0 v -31.09"
             style="fill:none;stroke:#000000;stroke-width:15;stroke-linecap:round;stroke-linejoin:round;stroke-miterlimit:10;stroke-dasharray:none;stroke-opacity:1"
             id="path3391" /></g><g
           id="g3393"
           transform="translate(244.5,287.5)"><path
             d="M 0,0 H -104 V 30 H 0 c 1.104,0 2,-0.896 2,-2 V 2 C 2,0.896 1.104,0 0,0 Z"
             style="fill:none;stroke:#000000;stroke-width:15;stroke-linecap:round;stroke-linejoin:round;stroke-miterlimit:10;stroke-dasharray:none;stroke-opacity:1"
             id="path3395" /></g><g
           id="g3397"
           transform="translate(244.5,227.5)"><path
             d="M 0,0 H -104 V 30 H 0 c 1.104,0 2,-0.896 2,-2 V 2 C 2,0.896 1.104,0 0,0 Z"
             style="fill:none;stroke:#000000;stroke-width:15;stroke-linecap:round;stroke-linejoin:round;stroke-miterlimit:10;stroke-dasharray:none;stroke-opacity:1"
             id="path3399" /></g><g
           id="g3401"
           transform="translate(244.5,167.5)"><path
             d="M 0,0 H -104 V 30 H 0 c 1.104,0 2,-0.896 2,-2 V 2 C 2,0.896 1.104,0 0,0 Z"
             style="fill:none;stroke:#000000;stroke-width:15;stroke-linecap:round;stroke-linejoin:round;stroke-miterlimit:10;stroke-dasharray:none;stroke-opacity:1"
             id="path3403" /></g><g
           id="g3405"
           transform="translate(244.5,107.5)"><path
             d="M 0,0 H -104 V 30 H 0 c 1.104,0 2,-0.896 2,-2 V 2 C 2,0.896 1.104,0 0,0 Z"
             style="fill:none;stroke:#000000;stroke-width:15;stroke-linecap:round;stroke-linejoin:round;stroke-miterlimit:10;stroke-dasharray:none;stroke-opacity:1"
             id="path3407" /></g><g
           id="g3409"
           transform="translate(222.5,381.5)"><path
             d="M 0,0 H -82 V 54 L 0,33.569 Z"
             style="fill:none;stroke:#000000;stroke-width:15;stroke-linecap:round;stroke-linejoin:round;stroke-miterlimit:10;stroke-dasharray:none;stroke-opacity:1"
             id="path3411" /></g><path
           d="m 250.5,351.5 h -110 v 30 h 110 z"
           style="fill:none;stroke:#000000;stroke-width:15;stroke-linecap:round;stroke-linejoin:round;stroke-miterlimit:10;stroke-dasharray:none;stroke-opacity:1"
           id="path3413" /><g
           id="g3415"
           transform="translate(140.5,435.5)"><path
             d="M 0,0 V 69"
             style="fill:none;stroke:#000000;stroke-width:15;stroke-linecap:round;stroke-linejoin:round;stroke-miterlimit:10;stroke-dasharray:none;stroke-opacity:1"
             id="path3417" /></g><path
           d="m 348.5,37.5 h -60 v 168 h 60 z"
           style="fill:none;stroke:#000000;stroke-width:15;stroke-linecap:round;stroke-linejoin:round;stroke-miterlimit:10;stroke-dasharray:none;stroke-opacity:1"
           id="path3419" /><g
           id="g3421"
           transform="translate(348.5,145.5)"><path
             d="m 0,0 h -28 c -1.104,0 -2,0.896 -2,2 v 26 c 0,1.104 0.896,2 2,2 H 0 Z"
             style="fill:none;stroke:#000000;stroke-width:15;stroke-linecap:round;stroke-linejoin:round;stroke-miterlimit:10;stroke-dasharray:none;stroke-opacity:1"
             id="path3423" /></g><g
           id="g3425"
           transform="translate(348.5,85.5)"><path
             d="m 0,0 h -28 c -1.104,0 -2,0.896 -2,2 v 26 c 0,1.104 0.896,2 2,2 H 0 Z"
             style="fill:none;stroke:#000000;stroke-width:15;stroke-linecap:round;stroke-linejoin:round;stroke-miterlimit:10;stroke-dasharray:none;stroke-opacity:1"
             id="path3427" /></g><path
           d="m 140.5,37.5 h -60 v 168 h 60 z"
           style="fill:none;stroke:#000000;stroke-width:15;stroke-linecap:round;stroke-linejoin:round;stroke-miterlimit:10;stroke-dasharray:none;stroke-opacity:1"
           id="path3429" /><g
           id="g3431"
           transform="translate(80.5,145.5)"><path
             d="m 0,0 h 28 c 1.104,0 2,0.896 2,2 v 26 c 0,1.104 -0.896,2 -2,2 H 0 Z"
             style="fill:none;stroke:#000000;stroke-width:15;stroke-linecap:round;stroke-linejoin:round;stroke-miterlimit:10;stroke-dasharray:none;stroke-opacity:1"
             id="path3433" /></g><g
           id="g3435"
           transform="translate(80.5,85.5)"><path
             d="m 0,0 h 28 c 1.104,0 2,0.896 2,2 v 26 c 0,1.104 -0.896,2 -2,2 H 0 Z"
             style="fill:none;stroke:#000000;stroke-width:15;stroke-linecap:round;stroke-linejoin:round;stroke-miterlimit:10;stroke-dasharray:none;stroke-opacity:1"
             id="path3437" /></g><g
           id="g3439"
           transform="translate(258.5,37.5)"><path
             d="m 0,0 h -88 v 36.022 c 0,1.093 0.886,1.978 1.978,1.978 H -1.978 C -0.886,38 0,37.115 0,36.022 Z"
             style="fill:none;stroke:#000000;stroke-width:15;stroke-linecap:round;stroke-linejoin:round;stroke-miterlimit:10;stroke-dasharray:none;stroke-opacity:1"
             id="path3441" /></g><g
           id="g3443"
           transform="translate(415.1387,447.4404)"><path
             d="m 0,0 c -5.408,3.755 -11.981,5.957 -19.07,5.957 -18.46,0 -33.424,-14.928 -33.424,-33.342 0,-18.414 14.964,-33.342 33.424,-33.342 18.459,0 33.424,14.928 33.424,33.342 M 0.198,-90.337 c -0.556,-3.949 -1.886,-9.603 -3.074,-14.199 -1.11,-4.292 -4.974,-7.294 -9.407,-7.294 h -13.575 c -4.434,0 -8.297,3.002 -9.407,7.294 -1.187,4.596 -2.518,10.25 -3.075,14.199 -0.415,2.941 -2.181,5.517 -4.756,7 l -12.544,7.224 c -2.571,1.481 -5.682,1.721 -8.434,0.612 -3.713,-1.498 -9.311,-3.183 -13.905,-4.457 -4.267,-1.183 -8.792,0.657 -11.01,4.489 l -6.78,11.711 c -2.219,3.836 -1.549,8.683 1.618,11.783 3.398,3.328 7.649,7.31 10.8,9.766 2.342,1.825 3.692,4.64 3.692,7.609 v 14.43 c 0,2.969 -1.35,5.784 -3.692,7.609 -3.151,2.456 -7.402,6.438 -10.8,9.766 -3.167,3.1 -3.837,7.947 -1.618,11.782 l 6.78,11.712 c 2.218,3.832 6.743,5.672 11.01,4.488 4.594,-1.273 10.192,-2.958 13.905,-4.456 2.752,-1.109 5.863,-0.869 8.434,0.612 l 12.544,7.224 c 2.575,1.483 4.341,4.058 4.756,7 0.557,3.949 1.888,9.603 3.075,14.199 1.11,4.292 4.973,7.294 9.407,7.294 h 13.575 c 4.433,0 8.297,-3.002 9.407,-7.294 1.188,-4.596 2.518,-10.25 3.074,-14.199 0.415,-2.942 2.183,-5.517 4.757,-7 l 12.543,-7.224 c 2.572,-1.481 5.683,-1.721 8.435,-0.612 3.713,1.498 9.311,3.183 13.906,4.456 4.266,1.184 8.792,-0.656 11.01,-4.488 L 57.627,8.987 c 2.221,-3.835 1.551,-8.682 -1.616,-11.782 -3.4,-3.328 -7.65,-7.31 -10.801,-9.766 -2.342,-1.825 -3.691,-4.64 -3.691,-7.609 V -34.6 c 0,-2.969 1.349,-5.784 3.691,-7.609 3.151,-2.456 7.401,-6.438 10.801,-9.766 3.167,-3.1 3.837,-7.947 1.616,-11.783 l -6.778,-11.711 c -2.218,-3.832 -6.744,-5.672 -11.01,-4.489 -4.595,1.274 -10.193,2.959 -13.906,4.457 -2.752,1.109 -5.863,0.869 -8.435,-0.612 L 4.955,-83.337 c -2.574,-1.483 -4.342,-4.059 -4.757,-7 z"
             style="fill:none;stroke:#000000;stroke-width:15;stroke-linecap:round;stroke-linejoin:round;stroke-miterlimit:10;stroke-dasharray:none;stroke-opacity:1"
             id="path3445" /></g></g></g></g></svg>
