<svg id="Line_Expand" height="512" viewBox="0 0 64 64" width="512" xmlns="http://www.w3.org/2000/svg" data-name="Line Expand"><path d="m26 44.5h12a.5.5 0 0 0 .5-.5v-3a.5.5 0 0 0 -.5-.5h-12a.5.5 0 0 0 -.5.5v3a.5.5 0 0 0 .5.5zm.5-3h11v2h-11z"/><path d="m27.5 32.5a2 2 0 0 0 2-2v-5.565l2.223 1.481a.5.5 0 0 0 .554-.832l-3-2a.5.5 0 0 0 -.777.416v4.778a1.978 1.978 0 0 0 -1-.278 2 2 0 0 0 0 4zm0-3a1 1 0 1 1 -1 1 1 1 0 0 1 1-1z"/><path d="m37.5 17.5a2 2 0 0 0 2-2v-5.565l2.223 1.481a.5.5 0 1 0 .554-.832l-3-2a.5.5 0 0 0 -.777.416v4.778a1.978 1.978 0 0 0 -1-.278 2 2 0 0 0 0 4zm0-3a1 1 0 1 1 -1 1 1 1 0 0 1 1-1z"/><path d="m63 51.5h-1.5v-30.5a2.5 2.5 0 0 0 -2.5-2.5h-16a2.5 2.5 0 0 0 -2.5 2.5v16.5h-17v-16.5a2.5 2.5 0 0 0 -2.5-2.5h-16a2.5 2.5 0 0 0 -2.5 2.5v30.5h-1.5a.5.5 0 0 0 -.5.5v3a.5.5 0 0 0 .5.5h62a.5.5 0 0 0 .5-.5v-3a.5.5 0 0 0 -.5-.5zm-21.5-30.5a1.5 1.5 0 0 1 1.5-1.5h16a1.5 1.5 0 0 1 1.5 1.5v30.5h-19zm-1 17.5v13h-17v-13zm-37-17.5a1.5 1.5 0 0 1 1.5-1.5h16a1.5 1.5 0 0 1 1.5 1.5v30.5h-19zm59 33.5h-61v-2h61z"/><path d="m51 34.5a7.5 7.5 0 1 0 7.5 7.5 7.508 7.508 0 0 0 -7.5-7.5zm0 14a6.5 6.5 0 1 1 6.5-6.5 6.508 6.508 0 0 1 -6.5 6.5z"/><path d="m51 36.5a5.5 5.5 0 1 0 5.5 5.5 5.506 5.506 0 0 0 -5.5-5.5zm0 10a4.5 4.5 0 1 1 4.5-4.5 4.505 4.505 0 0 1 -4.5 4.5z"/><path d="m51 32.5a5.5 5.5 0 1 0 -5.5-5.5 5.506 5.506 0 0 0 5.5 5.5zm0-10a4.5 4.5 0 1 1 -4.5 4.5 4.505 4.505 0 0 1 4.5-4.5z"/><path d="m51 40a2 2 0 1 0 2 2 2 2 0 0 0 -2-2zm0 3a1 1 0 1 1 1-1 1 1 0 0 1 -1 1z"/><path d="m58 34.5a1.5 1.5 0 1 0 -1.5-1.5 1.5 1.5 0 0 0 1.5 1.5zm0-2a.5.5 0 1 1 -.5.5.5.5 0 0 1 .5-.5z"/><path d="m44 34.5a1.5 1.5 0 1 0 -1.5-1.5 1.5 1.5 0 0 0 1.5 1.5zm0-2a.5.5 0 1 1 -.5.5.5.5 0 0 1 .5-.5z"/><path d="m51 30.5a3.5 3.5 0 1 0 -3.5-3.5 3.5 3.5 0 0 0 3.5 3.5zm0-6a2.5 2.5 0 1 1 -2.5 2.5 2.5 2.5 0 0 1 2.5-2.5z"/><path d="m13 34.5a7.5 7.5 0 1 0 7.5 7.5 7.508 7.508 0 0 0 -7.5-7.5zm0 14a6.5 6.5 0 1 1 6.5-6.5 6.508 6.508 0 0 1 -6.5 6.5z"/><path d="m13 36.5a5.5 5.5 0 1 0 5.5 5.5 5.506 5.506 0 0 0 -5.5-5.5zm0 10a4.5 4.5 0 1 1 4.5-4.5 4.505 4.505 0 0 1 -4.5 4.5z"/><path d="m13 32.5a5.5 5.5 0 1 0 -5.5-5.5 5.506 5.506 0 0 0 5.5 5.5zm0-10a4.5 4.5 0 1 1 -4.5 4.5 4.505 4.505 0 0 1 4.5-4.5z"/><path d="m13 40a2 2 0 1 0 2 2 2 2 0 0 0 -2-2zm0 3a1 1 0 1 1 1-1 1 1 0 0 1 -1 1z"/><path d="m20 31.5a1.5 1.5 0 1 0 1.5 1.5 1.5 1.5 0 0 0 -1.5-1.5zm0 2a.5.5 0 1 1 .5-.5.5.5 0 0 1 -.5.5z"/><path d="m7.5 33a1.5 1.5 0 1 0 -1.5 1.5 1.5 1.5 0 0 0 1.5-1.5zm-2 0a.5.5 0 1 1 .5.5.5.5 0 0 1 -.5-.5z"/><path d="m13 30.5a3.5 3.5 0 1 0 -3.5-3.5 3.5 3.5 0 0 0 3.5 3.5zm0-6a2.5 2.5 0 1 1 -2.5 2.5 2.5 2.5 0 0 1 2.5-2.5z"/><path d="m27 49.5a1.5 1.5 0 1 0 -1.5-1.5 1.5 1.5 0 0 0 1.5 1.5zm0-2a.5.5 0 1 1 -.5.5.5.5 0 0 1 .5-.5z"/><path d="m32 46.5a1.5 1.5 0 1 0 1.5 1.5 1.5 1.5 0 0 0 -1.5-1.5zm0 2a.5.5 0 1 1 .5-.5.5.5 0 0 1 -.5.5z"/><path d="m37 46.5a1.5 1.5 0 1 0 1.5 1.5 1.5 1.5 0 0 0 -1.5-1.5zm0 2a.5.5 0 1 1 .5-.5.5.5 0 0 1 -.5.5z"/></svg>