<svg id="Layer_1" enable-background="new 0 0 64 64" height="512" viewBox="0 0 64 64" width="512" xmlns="http://www.w3.org/2000/svg"><g><g><g><g><g><path d="m38.01 49.08c-.19 0-.38-.06-.54-.17-.27-.18-.43-.48-.43-.81l.04-8.61c0-.19.06-.38.17-.54l16.18-23.81c1.79-2.63 5.39-3.32 8.03-1.54 1.28.86 2.15 2.17 2.44 3.69.29 1.51-.02 3.04-.89 4.32l-16.18 23.8c-.11.16-.26.28-.44.35l-8.02 3.24c-.11.05-.24.08-.36.08zm1.01-9.28-.03 6.87 6.4-2.59 16.01-23.57c.57-.84.78-1.86.59-2.86s-.77-1.87-1.62-2.44c-1.75-1.18-4.15-.72-5.34 1.03z"/></g><g><path d="m46.02 45.83c-.19 0-.37-.05-.54-.17l-7.98-5.37c-.44-.3-.56-.9-.26-1.35s.9-.56 1.35-.26l7.98 5.37c.44.3.56.9.26 1.35-.19.28-.5.43-.81.43z"/></g><g><path d="m60.21 24.96c-.19 0-.37-.05-.54-.17l-7.98-5.37c-.44-.3-.56-.9-.26-1.35.3-.44.9-.56 1.35-.26l7.98 5.37c.44.3.56.9.26 1.35-.2.28-.5.43-.81.43z"/></g></g></g></g><g><path d="m48.16 64h-46c-1.19 0-2.16-.96-2.16-2.15v-47.72c0-.26.1-.51.29-.69l13.4-13.16c.18-.18.43-.28.68-.28h33.79c1.19 0 2.16.96 2.16 2.15v20.72c0 .54-.43.97-.97.97s-.97-.43-.97-.97v-20.72c0-.11-.1-.21-.22-.21h-33.39l-12.83 12.6v47.31c0 .12.1.21.22.21h46c.12 0 .22-.1.22-.21v-21.87c0-.54.43-.97.97-.97s.97.43.97.97v21.87c0 1.19-.97 2.15-2.16 2.15z"/></g><g><path d="m14.37 15.1h-13.4c-.54 0-.97-.43-.97-.97s.43-.97.97-.97h12.43v-12.19c0-.53.43-.97.97-.97s.97.43.97.97v13.16c0 .54-.43.97-.97.97z"/></g><g><g><path d="m17.01 29.32h-7.54c-.54 0-.97-.43-.97-.97v-7.98c0-.54.43-.97.97-.97h7.55c.54 0 .97.43.97.97v7.98c-.01.54-.44.97-.98.97zm-6.57-1.93h5.61v-6.04h-5.61z"/></g><g><g><path d="m40.75 23h-18.9c-.54 0-.97-.43-.97-.97s.43-.97.97-.97h18.9c.54 0 .97.43.97.97s-.43.97-.97.97z"/></g><g><path d="m31.31 27.88h-9.45c-.54 0-.97-.43-.97-.97s.43-.97.97-.97h9.45c.54 0 .97.43.97.97s-.44.97-.97.97z"/></g></g></g><g><g><path d="m17.01 43.55h-7.54c-.54 0-.97-.43-.97-.97v-7.98c0-.54.43-.97.97-.97h7.55c.54 0 .97.43.97.97v7.98c-.01.54-.44.97-.98.97zm-6.57-1.94h5.61v-6.04h-5.61z"/></g><g><g><path d="m36.32 37.22h-14.46c-.54 0-.97-.43-.97-.97s.43-.97.97-.97h14.46c.54 0 .97.43.97.97s-.44.97-.97.97z"/></g><g><path d="m31.31 42.1h-9.45c-.54 0-.97-.43-.97-.97s.43-.97.97-.97h9.45c.54 0 .97.43.97.97s-.44.97-.97.97z"/></g></g></g><g><g><path d="m17.01 57.77h-7.54c-.54 0-.97-.43-.97-.97v-7.98c0-.54.43-.97.97-.97h7.55c.54 0 .97.43.97.97v7.98c-.01.54-.44.97-.98.97zm-6.57-1.94h5.61v-6.04h-5.61z"/></g><g><g><path d="m36.32 51.45h-14.46c-.54 0-.97-.43-.97-.97s.43-.97.97-.97h14.46c.54 0 .97.43.97.97 0 .53-.44.97-.97.97z"/></g><g><path d="m31.31 56.33h-9.45c-.54 0-.97-.43-.97-.97s.43-.97.97-.97h9.45c.54 0 .97.43.97.97 0 .53-.44.97-.97.97z"/></g></g></g></g></svg>