<svg id="Layer_1" enable-background="new 0 0 468 468" height="512" viewBox="0 0 468 468" width="512" xmlns="http://www.w3.org/2000/svg"><g><path d="m440.838 339.903-23.475-8.265v-7.754h.358c22.43 0 40.677-18.236 40.677-40.651v-46.658c0-29.08-20.517-54.303-48.91-60.309-41.59-26.236-100.591 7.571-98.877 56.767v50.2c0 21.93 17.47 39.849 39.23 40.615v7.895l-20.356 7.812c-4.816 1.847-9.226 4.609-13 8.098-4.706-4.615-10.462-8.241-16.99-10.465l-32.422-11.047v-21.58c4.896-2.959 9.474-6.582 13.61-10.85 12.176-12.565 19.307-29.301 20.189-47.238.119-.43.186-27.489.186-27.489 0-26.382-18.608-49.269-44.375-54.752-37.755-23.737-91.293 6.928-89.742 51.563 0 0 .083 30.805.214 31.252 1.279 22.625 12.354 42.212 28.741 54.219v24.973l-28.508 10.557c-6.43 2.381-12.082 6.165-16.67 10.919-3.887-3.417-8.383-6.092-13.27-7.812l-23.474-8.265v-7.754h.358c22.429 0 40.677-18.236 40.677-40.651v-46.658c0-29.08-20.517-54.303-48.911-60.309-41.588-26.234-100.59 7.571-98.876 56.767v50.2c0 21.93 17.47 39.85 39.23 40.615v7.895l-20.357 7.812c-15.608 5.99-26.095 21.24-26.095 37.949v64.395c0 2.762 2.239 5 5 5h133.03v16.101c0 2.762 2.239 5 5 5h181.941c2.762 0 5-2.238 5-5v-16.102h133.029c2.762 0 5-2.238 5-5v-63.654c0-17.214-10.916-32.622-27.162-38.341zm-55.144-30.784c-21.362 0-38.741-20.118-38.741-44.848 0-6.114 1.048-12.011 3.103-17.566 15.323-6.274 28.929-16.165 39.688-29.004 10.721 12.267 21.933 24.208 33.519 35.741.764 3.55 1.173 7.184 1.173 10.829 0 24.73-17.379 44.848-38.742 44.848zm21.712 26.599-21.683 33.079-25.881-35.283v-22.778c13.373 9.939 33.118 11.16 47.521 2.645v21.798c0 .183.023.361.043.539zm40.992-52.485c0 16.901-13.762 30.651-30.677 30.651h-.358v-7.972c10.429-10.057 17.058-24.966 17.071-41.594 4.605 4.387 9.254 8.715 13.964 12.963zm-127.787-50.2c8.149-65.913 67.669-61.113 84.479-47.75.453.36 1.041.508 1.608.62 24.163 4.755 41.7 26.065 41.7 50.672v27.137c-19.373-17.94-37.87-37.114-55.043-57.112-1.954-2.406-6.024-2.271-7.81.279-10.567 14.258-24.79 25.022-41.069 31.296-7.403 2.968-15.929 4.677-23.866 6.006v-11.148zm0 50.2v-28.889c5.332-.983 12.739-2.18 17.868-3.679-1.003 4.413-1.526 8.958-1.526 13.606 0 14.3 4.893 27.335 12.889 37.109v12.468c-16.247-.758-29.231-14.198-29.231-30.615zm-68.322-109.984c.496.298 1.04.507 1.607.619 21.533 4.233 37.162 23.208 37.162 45.115v18.121c-16.835-8.875-30.023-23.312-37.308-40.917-1.292-3.404-6.193-4.165-8.455-1.297l-7.006 8.374c-6.204 7.415-16 11.063-25.563 9.51-13.766-2.229-27.48 3.362-35.786 14.153v-11.133c-1.291-37.476 43.916-62.935 75.349-42.545zm-75.148 73.3 5.349-9.867c5.567-10.269 17.08-15.906 28.638-14.037 13.029 2.111 26.375-2.857 34.832-12.965l1.966-2.349c9.299 17.885 24.387 32.24 42.835 40.793-2.55 31.482-26.928 55.696-56.76 55.696-30.272.001-55.005-25.051-56.86-57.271zm79.932 62.935v18.983l-22.716 42.478-28.46-42.738v-20.88c15.318 7.705 35.047 8.645 51.176 2.157zm-174.767-.365c-21.362 0-38.741-20.118-38.741-44.848 0-6.115 1.048-12.012 3.102-17.566 15.323-6.274 28.93-16.165 39.688-29.005 10.721 12.267 21.933 24.208 33.52 35.741.764 3.552 1.173 7.185 1.173 10.829-.001 24.731-17.381 44.849-38.742 44.849zm21.711 26.599-21.684 33.079-25.879-35.282v-22.778c13.373 9.938 33.118 11.16 47.521 2.645v21.798c0 .182.023.36.042.538zm40.993-52.485c0 16.901-13.762 30.651-30.677 30.651h-.358v-7.972c10.429-10.057 17.058-24.966 17.071-41.594 4.605 4.387 9.254 8.715 13.964 12.963zm-127.787-50.2c5.777-61.593 66.737-62.553 84.479-47.75.445.371 1.041.508 1.609.62 24.162 4.755 41.699 26.065 41.699 50.672v27.136c-19.374-17.94-37.871-37.114-55.042-57.112-1.975-2.408-6.019-2.269-7.811.279-10.565 14.256-24.785 25.018-41.059 31.293-7.406 2.97-15.935 4.68-23.875 6.01zm0 50.2v-28.889c5.332-.983 12.738-2.179 17.867-3.678-1.002 4.412-1.525 8.957-1.525 13.605 0 14.301 4.893 27.335 12.889 37.109v12.467c-16.246-.756-29.231-14.197-29.231-30.614zm-7.223 153.665v-59.395c0-12.598 7.908-24.096 19.679-28.613l20.017-7.681 27.866 37.991-.028 27.104c-.003 2.761 2.233 5.002 4.995 5.005h.005c2.759 0 4.997-2.235 5-4.995l.028-27.253 24.563-37.471 22.004 7.747c3.878 1.364 7.442 3.518 10.479 6.296-4.2 6.896-6.578 14.925-6.578 23.313v57.953h-128.03zm309.971 21.102h-35.971v-47.107c0-2.762-2.238-5-5-5s-5 2.238-5 5v47.107h-80v-47.107c0-2.762-2.239-5-5-5s-5 2.238-5 5v47.107h-35.97v-79.055c0-14.545 9.175-27.715 22.832-32.772l28.064-10.392 30.092 45.188-.036 21.916c-.002 2.762 2.234 5.002 4.996 5.005h.004c2.759 0 4.998-2.235 5-4.995l.035-19.514c.075-.116.153-.23.219-.353l25.245-47.207 31.791 10.832c14.176 4.828 23.7 18.121 23.7 33.079v78.268zm138.029-21.102h-128.029v-57.166c0-8.841-2.592-17.226-7.156-24.314 2.944-2.829 6.43-5.061 10.253-6.528l20.018-7.682 27.866 37.99-.029 27.104c-.003 2.761 2.233 5.002 4.995 5.005h.005c2.759 0 4.997-2.235 5-4.995l.029-27.253 24.563-37.471 22.003 7.747c12.251 4.313 20.482 15.93 20.482 28.908z"/><g><path d="m308.875 189.196c-4.285.152-6.727-5.581-3.525-8.546l9.127-9.072-10.992-17.999c-.943-1.545-.978-3.479-.091-5.058 2.978-5.294 5.332-10.912 6.998-16.698.496-1.726 1.88-3.052 3.624-3.476l20.664-5.022v-26.312l-20.594-5.005c-1.749-.425-3.135-1.758-3.628-3.489-1.651-5.797-3.989-11.422-6.949-16.721-.88-1.576-.843-3.504.098-5.045l11.029-18.059-18.741-18.63-18.152 10.957c-1.535.925-3.446.96-5.014.089-5.326-2.961-10.982-5.304-16.811-6.961-1.728-.492-3.059-1.872-3.487-3.615l-5.049-20.534h-26.538l-5.032 20.464c-.43 1.748-1.768 3.131-3.501 3.619-5.835 1.642-11.499 3.968-16.833 6.912-1.563.864-3.469.828-5-.096l-18.214-10.993-18.74 18.63 10.992 17.999c.944 1.546.979 3.48.091 5.058-2.976 5.29-5.331 10.908-6.998 16.699-.497 1.725-1.88 3.051-3.624 3.475l-20.665 5.022v26.313l20.594 5.005c1.75.425 3.135 1.758 3.628 3.489 1.649 5.794 3.987 11.419 6.949 16.721.88 1.576.843 3.504-.098 5.045l-11.029 18.059 8.041 7.994c1.958 1.947 1.968 5.112.021 7.071-1.947 1.957-5.113 1.968-7.071.021l-10.841-10.777c-1.642-1.632-1.949-4.177-.742-6.152l11.593-18.981c-2.233-4.329-4.104-8.832-5.587-13.445l-21.639-5.259c-2.241-.545-3.819-2.552-3.819-4.858v-34.177c0-2.307 1.578-4.313 3.819-4.858l21.718-5.278c1.497-4.609 3.381-9.107 5.625-13.428l-11.55-18.914c-1.207-1.976-.899-4.521.742-6.152l24.308-24.164c1.627-1.616 4.145-1.919 6.108-.735l19.129 11.546c4.365-2.228 8.909-4.095 13.564-5.573l5.286-21.495c.55-2.236 2.554-3.807 4.855-3.807h34.376c2.302 0 4.306 1.571 4.855 3.806l5.305 21.574c4.65 1.491 9.188 3.37 13.547 5.611l19.061-11.505c1.966-1.187 4.481-.881 6.109.735l24.309 24.164c1.641 1.632 1.948 4.177.742 6.152l-11.593 18.983c2.232 4.327 4.104 8.831 5.588 13.445l21.638 5.259c2.241.545 3.819 2.552 3.819 4.858v34.174c0 2.307-1.578 4.313-3.819 4.858l-21.718 5.278c-1.496 4.607-3.38 9.104-5.625 13.428l11.552 18.914c1.206 1.976.898 4.521-.742 6.152l-11.928 11.856c-.975.97-2.251 1.454-3.525 1.454z"/><path d="m234 152.077c-23.185 0-42.047-18.85-42.047-42.02s18.862-42.02 42.047-42.02c23.186 0 42.048 18.851 42.048 42.021s-18.862 42.019-42.048 42.019zm0-74.04c-17.671 0-32.047 14.364-32.047 32.021 0 17.655 14.376 32.02 32.047 32.02s32.048-14.364 32.048-32.02c0-17.657-14.377-32.021-32.048-32.021z"/></g><circle cx="234" cy="423" r="6.5"/></g></svg>